<svg fill="none" xmlns="http://www.w3.org/2000/svg">
<path d="M54.5599 42.72C54.4599 42.54 54.2599 42.44 54.0599 42.44H50.6199V29.4C50.6199 29.08 50.3599 28.82 50.0399 28.82H44.1999C43.8999 21.26 37.7999 15.16 30.2399 14.86V9.18H40.7199L45.0799 17.24C45.1799 17.42 45.3799 17.54 45.5999 17.54H54.0599C54.2599 17.54 54.4599 17.42 54.5599 17.24L59.3799 8.8C59.4799 8.62 59.4799 8.4 59.3799 8.22L54.5599 0.28C54.4599 0.1 54.2599 0 54.0599 0H45.5999C45.3999 0 45.1999 0.12 45.0999 0.28L40.6199 8.02H29.6599C29.3399 8.02 29.0799 8.28 29.0799 8.6V14.86C21.5199 15.16 15.4199 21.26 15.1199 28.82H10.2399V17.54H14.1599C14.3599 17.54 14.5599 17.42 14.6599 17.24L19.4799 8.8C19.5799 8.62 19.5799 8.4 19.4799 8.22L14.6599 0.28C14.5599 0.1 14.3599 0 14.1599 0H5.69992C5.49992 0 5.29992 0.12 5.19992 0.28L0.619922 8.22C0.519922 8.4 0.519922 8.6 0.619922 8.78L5.19992 17.24C5.29992 17.42 5.49992 17.54 5.71992 17.54H9.09992V29.4C9.09992 29.72 9.35992 29.98 9.67992 29.98H15.1599C15.4599 37.54 21.5599 43.64 29.1199 43.94V50.36H19.3199L14.6599 42.7C14.5599 42.52 14.3599 42.42 14.1599 42.42H5.69992C5.49992 42.42 5.29992 42.54 5.19992 42.7L0.619922 50.66C0.519922 50.84 0.519922 51.04 0.619922 51.22L5.19992 59.68C5.29992 59.86 5.49992 59.98 5.71992 59.98H14.1799C14.3799 59.98 14.5799 59.86 14.6799 59.68L19.3199 51.52H29.6799C29.9999 51.52 30.2599 51.26 30.2599 50.94V43.94C37.8199 43.64 43.9199 37.54 44.2199 29.98H49.4799V42.44H45.5999C45.3999 42.44 45.1999 42.56 45.0999 42.72L40.5199 50.64C40.4199 50.82 40.4199 51.02 40.5199 51.2L45.0999 59.66C45.1999 59.84 45.3999 59.96 45.6199 59.96H54.0799C54.2799 59.96 54.4799 59.84 54.5799 59.66L59.3999 51.2C59.4999 51.02 59.4999 50.8 59.3999 50.62L54.5599 42.72ZM45.9399 1.16H53.7399L58.1999 8.52L53.7199 16.4H45.9399L41.9399 9L41.6799 8.52L41.8799 8.18L45.9399 1.16ZM6.03992 16.38L1.77992 8.52L6.03992 1.16H13.8399L18.2999 8.52L13.8199 16.38H10.1799H9.15992H6.03992ZM13.8199 58.84H6.03992L1.77992 50.96L6.03992 43.6H13.8399L18.2999 50.96L13.8199 58.84ZM29.6599 42.8C22.2799 42.8 16.2599 36.8 16.2599 29.4C16.2599 22.02 22.2599 16 29.6599 16C37.0599 16 43.0599 22 43.0599 29.4C43.0599 36.8 37.0599 42.8 29.6599 42.8ZM53.7399 58.84H45.9599L41.6999 50.96L45.9599 43.6H49.8799H50.2599H53.7599L58.2199 50.96L53.7399 58.84Z" fill="url(#paint0_linear_4_128)"/>
<path d="M32.3803 26.48C33.2803 25.72 33.8403 24.58 33.8403 23.3C33.8403 21 31.9603 19.12 29.6603 19.12C27.3603 19.12 25.4803 21 25.4803 23.3C25.4803 24.56 26.0403 25.7 26.9403 26.48C25.6803 26.98 24.7803 28.2 24.7803 29.64V38.84C24.7803 39.16 25.0403 39.42 25.3603 39.42H33.9603C34.2803 39.42 34.5403 39.16 34.5403 38.84V29.64C34.5403 28.22 33.6403 26.98 32.3803 26.48ZM26.6603 23.32C26.6603 21.66 28.0203 20.3 29.6803 20.3C31.3403 20.3 32.7003 21.66 32.7003 23.32C32.7003 24.74 31.7003 25.94 30.3603 26.26C30.1403 26.32 29.9003 26.34 29.6803 26.34C29.4403 26.34 29.2203 26.3 29.0003 26.26C27.6403 25.94 26.6603 24.74 26.6603 23.32ZM33.3803 38.26H25.9403V29.64C25.9403 28.4 26.9403 27.4 28.1803 27.4H28.8403C29.1003 27.46 29.3803 27.48 29.6603 27.48C29.9403 27.48 30.2203 27.46 30.4803 27.4H31.1403C32.3803 27.4 33.3803 28.4 33.3803 29.64V38.26Z" fill="url(#paint1_linear_4_128)"/>
<defs>
<linearGradient id="paint0_linear_4_128" x1="0.535882" y1="30" x2="59.4639" y2="30" gradientUnits="userSpaceOnUse">
<stop stop-color="#2570FB"/>
<stop offset="1" stop-color="#8611C1"/>
</linearGradient>
<linearGradient id="paint1_linear_4_128" x1="24.7918" y1="29.2818" x2="34.5485" y2="29.2818" gradientUnits="userSpaceOnUse">
<stop stop-color="#2570FB"/>
<stop offset="1" stop-color="#8611C1"/>
</linearGradient>
</defs>
</svg>
