<svg width="56" height="60" viewBox="0 0 56 60" fill="none" xmlns="http://www.w3.org/2000/svg">
<path d="M27.9995 0C14.6795 0 0.519531 2.48 0.519531 7.08V20.84V23.92V36.34V39.42V52.9C0.519531 57.5 14.6795 59.98 27.9995 59.98C41.3195 59.98 55.4795 57.5 55.4795 52.9V39.42V36.34V23.92V20.84V7.08C55.4795 2.48 41.3195 0 27.9995 0ZM54.2995 35.24V36.74V39.02C51.8795 41.52 41.7395 43.92 27.9995 43.92C14.2595 43.92 4.11953 41.52 1.69953 39.02V36.74V35.24V25.02C5.93953 28.02 17.2395 29.6 27.9995 29.6C38.7595 29.6 50.0595 28.02 54.2995 25.02V35.24ZM54.2995 19.74V21.24V23.52C51.8795 26.02 41.7395 28.42 27.9995 28.42C14.2595 28.42 4.11953 26.02 1.69953 23.52V21.24V19.74V9.26C5.35953 12.46 16.9595 14.16 27.9995 14.16C39.0395 14.16 50.6395 12.46 54.2995 9.26V19.74ZM27.9995 1.18C43.4995 1.18 54.2995 4.3 54.2995 7.08C54.2995 9.86 43.4995 13 27.9995 13C12.4995 13 1.69953 9.88 1.69953 7.08C1.69953 4.28 12.4995 1.18 27.9995 1.18ZM27.9995 58.82C12.4995 58.82 1.69953 55.7 1.69953 52.92V50.74V40.54C5.93953 43.54 17.2395 45.12 27.9995 45.12C38.7595 45.12 50.0595 43.54 54.2995 40.54V50.74V52.92C54.2995 55.72 43.4995 58.82 27.9995 58.82Z" fill="url(#paint0_linear_4_173)"/>
<path d="M47.8592 47.92C47.2392 46.82 46.0792 46.08 44.7392 46.08C43.8992 46.08 43.1192 46.38 42.5192 46.86C42.1592 47.14 41.8592 47.5 41.6192 47.92C41.3192 48.44 41.1592 49.04 41.1592 49.66C41.1592 51.64 42.7592 53.24 44.7392 53.24C46.7192 53.24 48.3192 51.64 48.3192 49.66C48.3192 49.52 48.3192 49.4 48.2992 49.26C48.2192 48.78 48.0792 48.32 47.8592 47.92ZM44.7192 52.06C43.3992 52.06 42.3192 50.98 42.3192 49.66C42.3192 49.06 42.5392 48.52 42.8792 48.12C43.3192 47.6 43.9792 47.26 44.6992 47.26C44.7392 47.26 44.7992 47.26 44.8392 47.26C45.0592 47.28 45.2792 47.32 45.4792 47.38C46.1992 47.62 46.7592 48.2 46.9992 48.92C47.0792 49.14 47.1192 49.4 47.1192 49.64C47.1192 50.98 46.0392 52.06 44.7192 52.06Z" fill="url(#paint1_linear_4_173)"/>
<path d="M37.5597 50.2C26.6397 51.08 17.3997 50.64 9.33967 48.84C9.15967 48.8 8.97967 48.76 8.79967 48.72C8.47967 48.64 8.17967 48.84 8.09967 49.16C8.01967 49.48 8.21967 49.8 8.53967 49.86C14.1597 51.16 20.3197 51.82 27.2197 51.82C30.5197 51.82 33.9997 51.68 37.6597 51.38C37.9797 51.36 38.2197 51.06 38.1997 50.74C38.1797 50.42 37.8997 50.18 37.5597 50.2Z" fill="url(#paint2_linear_4_173)"/>
<path d="M44.7197 38.3C46.6997 38.3 48.2996 36.7 48.2996 34.72C48.2996 34.48 48.2797 34.24 48.2197 34C48.1197 33.5 47.8996 33.02 47.5996 32.62C46.9396 31.72 45.8996 31.14 44.6996 31.14C43.9996 31.14 43.3396 31.34 42.7996 31.7C42.3796 31.96 42.0196 32.32 41.7396 32.72C41.3596 33.28 41.1396 33.98 41.1396 34.7C41.1396 36.7 42.7597 38.3 44.7197 38.3ZM44.7197 32.32C45.6597 32.32 46.4796 32.88 46.8796 33.66C47.0396 33.98 47.1197 34.34 47.1197 34.72C47.1197 36.04 46.0397 37.12 44.7197 37.12C43.3997 37.12 42.3197 36.04 42.3197 34.72C42.3197 34.02 42.6197 33.38 43.1197 32.94C43.5397 32.56 44.0997 32.32 44.7197 32.32Z" fill="url(#paint3_linear_4_173)"/>
<path d="M8.79967 33.8C8.75967 33.8 8.71967 33.78 8.67967 33.78C8.57967 33.78 8.47967 33.8 8.39967 33.84C8.25967 33.92 8.13967 34.06 8.09967 34.22C8.01967 34.54 8.21967 34.86 8.53967 34.92C14.1597 36.22 20.3197 36.88 27.2197 36.88C30.5197 36.88 33.9997 36.74 37.6597 36.44C37.9797 36.42 38.2197 36.12 38.1997 35.8C38.1797 35.48 37.8797 35.24 37.5597 35.26C26.3997 36.18 16.9797 35.7 8.79967 33.8Z" fill="url(#paint4_linear_4_173)"/>
<path d="M44.7197 23.12C46.6997 23.12 48.2996 21.52 48.2996 19.54C48.2996 19.18 48.2396 18.82 48.1396 18.48C47.9796 17.94 47.6796 17.44 47.2796 17.04C46.6196 16.36 45.7197 15.96 44.7197 15.96C44.1997 15.96 43.7196 16.08 43.2596 16.28C42.7596 16.5 42.2996 16.84 41.9596 17.26C41.4396 17.88 41.1396 18.68 41.1396 19.54C41.1396 21.52 42.7597 23.12 44.7197 23.12ZM44.7197 17.14C45.5197 17.14 46.2196 17.52 46.6596 18.12C46.9596 18.52 47.1197 19 47.1197 19.54C47.1197 20.86 46.0397 21.94 44.7197 21.94C43.3997 21.94 42.3197 20.86 42.3197 19.54C42.3197 18.68 42.7796 17.92 43.4596 17.5C43.8396 17.28 44.2597 17.14 44.7197 17.14Z" fill="url(#paint5_linear_4_173)"/>
<path d="M8.79967 18.6C8.47967 18.52 8.15967 18.72 8.09967 19.04C8.01967 19.36 8.21967 19.68 8.53967 19.74C14.1597 21.04 20.3197 21.7 27.2197 21.7C30.5197 21.7 33.9997 21.56 37.6597 21.26C37.9797 21.24 38.2197 20.94 38.1997 20.62C38.1797 20.3 37.8797 20.06 37.5597 20.08C26.3997 21 16.9797 20.5 8.79967 18.6Z" fill="url(#paint6_linear_4_173)"/>
<defs>
<linearGradient id="paint0_linear_4_173" x1="0.523171" y1="30" x2="55.4758" y2="30" gradientUnits="userSpaceOnUse">
<stop stop-color="#2570FB"/>
<stop offset="1" stop-color="#8611C1"/>
</linearGradient>
<linearGradient id="paint1_linear_4_173" x1="41.1487" y1="49.6516" x2="48.3004" y2="49.6516" gradientUnits="userSpaceOnUse">
<stop stop-color="#2570FB"/>
<stop offset="1" stop-color="#8611C1"/>
</linearGradient>
<linearGradient id="paint2_linear_4_173" x1="8.08553" y1="50.26" x2="38.2042" y2="50.26" gradientUnits="userSpaceOnUse">
<stop stop-color="#2570FB"/>
<stop offset="1" stop-color="#8611C1"/>
</linearGradient>
<linearGradient id="paint3_linear_4_173" x1="41.1491" y1="34.7294" x2="48.3008" y2="34.7294" gradientUnits="userSpaceOnUse">
<stop stop-color="#2570FB"/>
<stop offset="1" stop-color="#8611C1"/>
</linearGradient>
<linearGradient id="paint4_linear_4_173" x1="8.08553" y1="35.3381" x2="38.2042" y2="35.3381" gradientUnits="userSpaceOnUse">
<stop stop-color="#2570FB"/>
<stop offset="1" stop-color="#8611C1"/>
</linearGradient>
<linearGradient id="paint5_linear_4_173" x1="41.1491" y1="19.5405" x2="48.3008" y2="19.5405" gradientUnits="userSpaceOnUse">
<stop stop-color="#2570FB"/>
<stop offset="1" stop-color="#8611C1"/>
</linearGradient>
<linearGradient id="paint6_linear_4_173" x1="8.08553" y1="20.1491" x2="38.2042" y2="20.1491" gradientUnits="userSpaceOnUse">
<stop stop-color="#2570FB"/>
<stop offset="1" stop-color="#8611C1"/>
</linearGradient>
</defs>
</svg>
