<svg width="61" height="56" viewBox="0 0 61 56" fill="none" xmlns="http://www.w3.org/2000/svg">
<path d="M6.71973 44.66C6.71973 47.58 9.09973 49.96 12.0197 49.96C14.9397 49.96 17.3197 47.58 17.3197 44.66C17.3197 42.82 16.3797 41.2 14.9397 40.24L17.2397 36.32L17.8397 35.3L26.0997 21.2C26.4197 20.66 26.2397 19.96 25.7197 19.62C25.6997 19.62 25.6997 19.6 25.6797 19.6C22.9797 17.84 21.1997 14.8 21.1997 11.36C21.1997 5.67998 26.0397 1.11998 31.7997 1.53998C36.6997 1.89998 40.6197 5.93998 40.8597 10.86C40.9597 13.06 40.3597 15.1 39.2197 16.8C39.0597 17.06 39.0997 17.38 39.3397 17.58C39.5997 17.8 39.9997 17.74 40.1997 17.46C41.5197 15.48 42.2197 13.06 41.9997 10.46C41.5597 4.97998 37.0397 0.619976 31.5397 0.359976C25.2197 0.0599765 19.9997 5.11998 19.9997 11.36C19.9997 15.24 22.0197 18.66 25.0597 20.62L16.7997 34.72L16.1997 35.74L13.8797 39.7C13.2997 39.48 12.6797 39.36 12.0197 39.36C9.09973 39.36 6.71973 41.74 6.71973 44.66ZM14.1997 41.16C15.3597 41.88 16.1397 43.18 16.1397 44.64C16.1397 46.9 14.2997 48.76 12.0197 48.76C9.73973 48.76 7.89973 46.92 7.89973 44.64C7.89973 42.36 9.73973 40.52 12.0197 40.52C12.5397 40.52 13.0397 40.62 13.4797 40.8C13.7397 40.9 13.9597 41.02 14.1997 41.16Z" fill="url(#paint0_linear_4_94)"/>
<path d="M60.9802 44.14C60.7402 38.62 56.3402 34.08 50.8402 33.66C48.7602 33.5 46.7802 33.92 45.0602 34.8L36.8202 20.68L36.2202 19.66L33.9202 15.72C35.3402 14.76 36.2602 13.16 36.2602 11.32C36.2602 8.39996 33.8802 6.01996 30.9602 6.01996C28.0402 6.01996 25.6602 8.39996 25.6602 11.32C25.6602 14.24 28.0402 16.62 30.9602 16.62C31.6202 16.62 32.2602 16.5 32.8602 16.26L35.1602 20.22L35.7602 21.24L44.0002 35.36C44.3202 35.9 45.0002 36.1 45.5602 35.82C45.5802 35.82 45.6002 35.8 45.6002 35.8C47.1202 35.06 48.8602 34.68 50.7002 34.82C55.5002 35.2 59.3802 39.08 59.7402 43.9C60.1602 49.66 55.6002 54.48 49.9202 54.48C46.1002 54.48 42.7802 52.28 41.1402 49.1C40.9802 48.78 40.6002 48.68 40.3002 48.86C40.0402 49.02 39.9602 49.36 40.1002 49.62C41.9202 53.2 45.6402 55.66 49.9202 55.66C56.2202 55.66 61.2802 50.44 60.9802 44.14ZM26.8802 11.34C26.8802 9.07996 28.7202 7.21996 31.0002 7.21996C33.2602 7.21996 35.1202 9.05996 35.1202 11.34C35.1202 13.62 33.2802 15.46 31.0002 15.46C28.7402 15.46 26.8802 13.62 26.8802 11.34Z" fill="url(#paint1_linear_4_94)"/>
<path d="M44.72 45.24C45.02 47.88 47.26 49.94 49.98 49.94C52.9 49.94 55.28 47.56 55.28 44.64C55.28 41.72 52.9 39.34 49.98 39.34C47.26 39.34 45.02 41.4 44.72 44.04H40.16H38.98H23H22.42C22.1 44.04 21.84 44.3 21.84 44.62C21.84 44.82 21.84 45.02 21.82 45.2C21.5 50.54 16.92 54.74 11.44 54.44C6.56003 54.2 2.58003 50.3 2.20003 45.4C1.76003 39.64 6.34003 34.8 12.02 34.8C12.26 34.8 12.5 34.8 12.74 34.82C12.98 34.84 13.2 34.72 13.3 34.5C13.5 34.12 13.24 33.66 12.82 33.64C12.46 33.62 12.1 33.6 11.74 33.62C5.70003 33.78 0.860033 38.88 1.00003 44.92C1.14003 50.86 6.02003 55.66 12.02 55.66C17.9 55.66 22.72 51.04 23.02 45.24H39H40.18H44.72V45.24ZM49.98 40.54C52.24 40.54 54.1 42.38 54.1 44.66C54.1 46.94 52.26 48.78 49.98 48.78C47.72 48.78 45.86 46.94 45.86 44.66C45.86 42.38 47.72 40.54 49.98 40.54Z" fill="url(#paint2_linear_4_94)"/>
<defs>
<linearGradient id="paint0_linear_4_94" x1="6.72437" y1="25.1376" x2="42.0152" y2="25.1376" gradientUnits="userSpaceOnUse">
<stop stop-color="#2570FB"/>
<stop offset="1" stop-color="#8611C1"/>
</linearGradient>
<linearGradient id="paint1_linear_4_94" x1="25.7095" y1="30.8623" x2="61.0002" y2="30.8623" gradientUnits="userSpaceOnUse">
<stop stop-color="#2570FB"/>
<stop offset="1" stop-color="#8611C1"/>
</linearGradient>
<linearGradient id="paint2_linear_4_94" x1="1.00006" y1="44.6505" x2="55.2753" y2="44.6505" gradientUnits="userSpaceOnUse">
<stop stop-color="#2570FB"/>
<stop offset="1" stop-color="#8611C1"/>
</linearGradient>
</defs>
</svg>
