<svg width="60" height="60" viewBox="0 0 60 60" fill="none" xmlns="http://www.w3.org/2000/svg">
<path d="M30 0C13.46 0 0 13.46 0 30C0 46.54 13.46 60 30 60C46.54 60 60 46.54 60 30C60 13.46 46.54 0 30 0ZM50.54 39.94C49.94 40.24 49.34 40.52 48.7 40.78V37.26C48.7 36.94 48.44 36.68 48.12 36.68C47.8 36.68 47.54 36.94 47.54 37.26V41.24C46.42 41.66 45.26 42.04 44.04 42.38C43.62 42.5 43.18 42.62 42.76 42.72C42.64 42.74 42.52 42.78 42.4 42.82V37.36C42.4 37.04 42.14 36.78 41.82 36.78C41.5 36.78 41.24 37.04 41.24 37.36V43.1C40.58 43.24 39.9 43.36 39.22 43.48V35.76C40 34.78 41.18 34.14 42.54 34.14H43.22C43.5 34.24 43.78 34.32 44.08 34.36C44.34 34.4 44.6 34.42 44.88 34.42C45 34.42 45.14 34.42 45.26 34.4C45.7 34.36 46.14 34.28 46.54 34.12H47.38C49.7 34.12 51.58 36 51.58 38.32V39.38C51.22 39.58 50.88 39.76 50.54 39.94ZM12.44 36.68C12.12 36.68 11.86 36.94 11.86 37.26V41C11.04 40.66 10.24 40.32 9.48 39.92C9.32 39.84 9.16 39.76 9 39.68V38.32C9 36 10.88 34.12 13.2 34.12H14.04C14.28 34.2 14.52 34.28 14.78 34.32C15.08 34.38 15.4 34.4 15.72 34.4C15.8 34.4 15.9 34.4 15.98 34.4C16.48 34.38 16.94 34.28 17.38 34.12H18.06C19.24 34.12 20.3 34.62 21.08 35.4V43.5C20.5 43.4 19.92 43.3 19.36 43.2V37.36C19.36 37.04 19.1 36.78 18.78 36.78C18.46 36.78 18.2 37.04 18.2 37.36V42.94C17.9 42.88 17.6 42.8 17.3 42.72C16.86 42.62 16.44 42.5 16.02 42.38C15 42.1 14.02 41.78 13.08 41.44V37.24C13.02 36.94 12.76 36.68 12.44 36.68ZM17.14 32.94C16.74 33.1 16.32 33.2 15.88 33.22C15.82 33.22 15.76 33.22 15.7 33.22C15.36 33.22 15.02 33.16 14.7 33.08C14.56 33.04 14.4 33 14.26 32.94C12.88 32.38 11.9 31 11.9 29.42C11.9 27.64 13.12 26.16 14.76 25.74C15.06 25.66 15.38 25.62 15.7 25.62C15.78 25.62 15.86 25.62 15.96 25.64C17.94 25.78 19.52 27.42 19.52 29.44C19.5 31.02 18.52 32.38 17.14 32.94ZM22.24 34.96V34.54C22.24 32.88 23.58 31.54 25.24 31.54H29.04C29.46 31.64 29.92 31.68 30.36 31.68C30.82 31.68 31.26 31.62 31.68 31.54H34.96C36.62 31.54 37.96 32.88 37.96 34.54V35.38V43.66C37.66 43.7 37.36 43.74 37.06 43.78C36.42 43.86 35.76 43.92 35.1 43.98V35.3C35.1 34.98 34.84 34.72 34.52 34.72C34.2 34.72 33.94 34.98 33.94 35.3V44.06C32.64 44.14 31.3 44.2 29.96 44.2C28.84 44.2 27.74 44.16 26.64 44.1V35.4C26.64 35.08 26.38 34.82 26.06 34.82C25.74 34.82 25.48 35.08 25.48 35.4V44.02C24.78 43.96 24.1 43.9 23.4 43.82C23 43.78 22.62 43.72 22.22 43.68H22.2V37.96V34.96H22.24ZM25.32 25.42C25.32 22.62 27.6 20.34 30.4 20.34C33.2 20.34 35.48 22.62 35.48 25.42C35.48 27.8 33.82 29.82 31.6 30.34C31.22 30.44 30.82 30.48 30.4 30.48C29.98 30.48 29.58 30.42 29.2 30.34C26.96 29.8 25.32 27.8 25.32 25.42ZM21.34 44.74C21.5 44.76 21.66 44.78 21.8 44.8C23.18 45 24.58 45.14 26 45.24C26.02 45.24 26.06 45.24 26.08 45.24H26.1C27.38 45.32 28.68 45.36 29.98 45.36C31.46 45.36 32.92 45.3 34.36 45.2C34.52 45.18 34.66 45.18 34.82 45.16C35.78 45.08 36.72 44.98 37.64 44.86H37.66C37.72 44.86 37.78 44.84 37.84 44.82C37.98 44.8 38.1 44.78 38.24 44.76C38.5 44.72 38.74 44.68 39 44.64C40.16 44.46 41.28 44.24 42.38 43.98C41.72 46.34 40.9 48.54 39.92 50.48C37.24 55.82 33.7 58.78 29.98 58.78C26.26 58.78 22.74 55.84 20.04 50.48C19.06 48.52 18.24 46.34 17.58 43.98C18.82 44.3 20.06 44.54 21.34 44.74ZM46.28 32.94C45.96 33.06 45.64 33.16 45.3 33.2C45.16 33.22 45 33.22 44.84 33.22C44.6 33.22 44.36 33.2 44.12 33.14C43.86 33.1 43.62 33.02 43.4 32.92C42.02 32.36 41.04 30.98 41.04 29.4C41.04 27.58 42.34 26.04 44.06 25.68C44.32 25.62 44.58 25.6 44.86 25.6C44.98 25.6 45.12 25.6 45.24 25.62C47.16 25.82 48.66 27.44 48.66 29.4C48.64 31.02 47.66 32.38 46.28 32.94ZM48.28 33.02C49.24 32.12 49.82 30.84 49.82 29.42C49.82 26.76 47.74 24.6 45.12 24.44C45.02 24.44 44.94 24.44 44.84 24.44C44.54 24.44 44.24 24.46 43.94 24.52C41.62 24.94 39.86 26.98 39.86 29.42C39.86 30.84 40.46 32.14 41.42 33.04C40.58 33.2 39.8 33.58 39.14 34.1C38.92 31.98 37.14 30.34 34.98 30.34H34.22C35.68 29.2 36.64 27.42 36.64 25.42C36.64 21.98 33.84 19.18 30.4 19.18C26.96 19.18 24.16 21.98 24.16 25.42C24.16 27.42 25.1 29.2 26.58 30.34H25.28C23.18 30.34 21.44 31.9 21.14 33.9C20.54 33.48 19.86 33.2 19.14 33.04C20.1 32.14 20.7 30.84 20.7 29.42C20.7 26.8 18.66 24.64 16.08 24.46C15.96 24.46 15.84 24.44 15.72 24.44C15.44 24.44 15.16 24.46 14.88 24.52C12.52 24.92 10.74 26.96 10.74 29.42C10.74 30.84 11.34 32.12 12.28 33.02C9.76 33.46 7.82 35.68 7.82 38.32V39.02C3.52 36.48 1.18 33.32 1.18 30C1.18 26.28 4.12 22.76 9.48 20.06C11.44 19.08 13.62 18.26 15.98 17.6C16.4 17.48 16.84 17.36 17.26 17.26C21.18 16.3 25.5 15.78 30 15.78C34.5 15.78 38.82 16.3 42.74 17.26C43.18 17.36 43.6 17.48 44.02 17.6C46.38 18.26 48.58 19.08 50.52 20.06C55.86 22.74 58.82 26.28 58.82 30C58.82 33.18 56.68 36.2 52.72 38.7V38.34C52.74 35.68 50.8 33.48 48.28 33.02ZM17.6 15.98C18.26 13.62 19.08 11.42 20.06 9.48C22.76 4.12 26.28 1.18 30 1.18C33.72 1.18 37.24 4.12 39.94 9.48C40.92 11.44 41.74 13.62 42.4 15.98C38.56 15.1 34.34 14.62 30 14.62C25.66 14.62 21.44 15.08 17.6 15.98ZM58.38 24.96C56.9 22.74 54.42 20.7 51.06 19.02C48.86 17.92 46.38 17 43.7 16.3C43 13.62 42.08 11.14 40.98 8.94C39.3 5.58 37.26 3.1 35.04 1.62C46.9 3.72 56.28 13.1 58.38 24.96ZM24.96 1.62C22.74 3.1 20.7 5.58 19.02 8.94C17.92 11.14 17 13.62 16.3 16.3C13.62 17 11.14 17.9 8.94 19.02C5.58 20.7 3.1 22.74 1.62 24.96C3.72 13.1 13.1 3.72 24.96 1.62ZM1.62 35.04C2.96 37.04 5.08 38.88 7.92 40.46C8.08 40.54 8.22 40.62 8.38 40.7C8.56 40.8 8.74 40.9 8.94 40.98C11.14 42.08 13.62 43 16.3 43.7C17 46.38 17.92 48.86 19.02 51.06C20.7 54.42 22.74 56.9 24.96 58.38C13.1 56.28 3.72 46.9 1.62 35.04ZM35.04 58.38C37.26 56.9 39.3 54.42 40.98 51.06C42.08 48.86 43 46.38 43.7 43.7C46.38 43 48.86 42.08 51.06 40.98C51.32 40.86 51.56 40.72 51.8 40.58C52.12 40.4 52.42 40.24 52.72 40.06C55.24 38.56 57.14 36.86 58.38 35.02C56.28 46.9 46.9 56.28 35.04 58.38Z" fill="url(#paint0_linear_4_139)"/>
<defs>
<linearGradient id="paint0_linear_4_139" x1="0" y1="30" x2="60" y2="30" gradientUnits="userSpaceOnUse">
<stop stop-color="#2570FB"/>
<stop offset="1" stop-color="#8611C1"/>
</linearGradient>
</defs>
</svg>
