<svg width="52" height="60" viewBox="0 0 52 60" fill="none" xmlns="http://www.w3.org/2000/svg">
<path d="M20.8402 5.2C20.8402 4.88 20.5802 4.62 20.2602 4.62H12.3202C12.0002 4.62 11.7402 4.88 11.7402 5.2C11.7402 5.52 12.0002 5.77999 12.3202 5.77999H20.2602C20.5802 5.79999 20.8402 5.54 20.8402 5.2Z" fill="url(#paint0_linear_4_194)"/>
<path d="M16.3005 58.52C17.5405 58.52 18.5405 57.52 18.5405 56.28C18.5405 55.04 17.5405 54.04 16.3005 54.04C15.0605 54.04 14.0605 55.04 14.0605 56.28C14.0605 57.52 15.0605 58.52 16.3005 58.52ZM16.3005 55.24C16.8805 55.24 17.3605 55.72 17.3605 56.3C17.3605 56.88 16.8805 57.36 16.3005 57.36C15.7205 57.36 15.2405 56.88 15.2405 56.3C15.2405 55.7 15.7005 55.24 16.3005 55.24Z" fill="url(#paint1_linear_4_194)"/>
<path d="M47.8604 29.36L42.1204 23.62C41.5804 23.08 40.8404 22.76 40.0604 22.76C39.2804 22.76 38.5604 23.06 38.0004 23.62C37.5404 24.08 37.2604 24.66 37.1804 25.28C36.0404 24.6 34.5204 24.76 33.5404 25.74C32.8404 26.44 32.5604 27.4 32.7004 28.3C32.5204 28.26 32.3604 28.26 32.1804 28.26V2.88C32.1804 1.28 30.8804 0 29.3004 0H3.30039C1.70039 0 0.400391 1.3 0.400391 2.88V52.76V57.1C0.400391 58.7 1.70039 59.98 3.28039 59.98H29.2804C30.8804 59.98 32.1604 58.68 32.1604 57.1V52.76V48.86L34.4404 49.78C35.5204 50.2 36.6004 50.5 37.6004 50.72C38.3204 50.86 39.0404 50.94 39.7804 50.94C42.6804 50.94 45.5004 49.78 47.6204 47.64L47.8404 47.42C52.8404 42.46 52.8404 34.34 47.8604 29.36ZM31.0004 57.12C31.0004 58.06 30.2404 58.84 29.2804 58.84H3.28039C2.34039 58.84 1.56039 58.08 1.56039 57.12V53.38H31.0004V57.12ZM31.0004 52.18H1.58039V2.88C1.58039 1.94 2.34039 1.16 3.30039 1.16H29.3004C30.2404 1.16 31.0204 1.92 31.0204 2.88V28.5C30.7204 28.64 30.4604 28.82 30.2204 29.06C29.8204 29.46 29.5604 29.98 29.4404 30.5L24.0004 25.06C22.7804 23.84 20.8004 23.84 19.6004 25.06C19.0204 25.64 18.6804 26.44 18.6804 27.26C18.6804 28.1 19.0004 28.88 19.6004 29.46L31.0204 40.88V41.42L29.5804 40.94C27.9604 40.4 26.1804 41.28 25.6004 42.9C25.0404 44.5 25.8204 46.24 27.3804 46.88L31.0004 48.4V52.18ZM47.0204 46.6L46.8004 46.82C44.4204 49.2 41.0804 50.22 37.8604 49.56C36.9004 49.36 35.9004 49.06 34.8804 48.68L32.1804 47.58L31.0004 47.1L27.8204 45.8C26.8404 45.4 26.3404 44.3 26.7004 43.3C27.0604 42.28 28.1804 41.74 29.2004 42.06L31.0204 42.66L32.2004 43.04L33.8004 43.56C34.0604 43.64 34.3404 43.54 34.4804 43.3C34.6204 43.06 34.5804 42.76 34.4004 42.58L32.2004 40.38L31.0204 39.2L20.4204 28.6C19.6604 27.84 19.6604 26.62 20.4204 25.86C21.1804 25.1 22.4004 25.1 23.1604 25.86L29.8004 32.5C29.9204 32.68 30.0604 32.86 30.2204 33.04L31.0204 33.84L32.2004 35.02L33.6804 36.5C33.7604 36.58 33.8604 36.62 33.9404 36.66L34.9604 37.68C35.1804 37.9 35.5604 37.9 35.8004 37.68C36.0204 37.46 36.0204 37.08 35.8004 36.84L32.2004 33.24L31.0204 32.06L30.7404 31.78C30.4404 31.18 30.5204 30.42 31.0204 29.9L31.0404 29.88C31.3604 29.56 31.7804 29.4 32.2004 29.4C32.6204 29.4 33.0604 29.56 33.3804 29.88L38.1804 34.68C38.4004 34.9 38.7804 34.9 39.0204 34.68C39.2404 34.46 39.2404 34.08 39.0204 33.84L36.4204 31.24C36.4004 31.14 36.3404 31.04 36.2604 30.98L34.3804 29.1C33.6804 28.4 33.6804 27.24 34.3804 26.54C35.0804 25.84 36.2404 25.84 36.9404 26.54L37.5804 27.18C37.7004 27.38 37.8404 27.56 38.0004 27.72L40.5804 30.3C40.6604 30.38 40.7604 30.42 40.8404 30.46L41.6804 31.3C41.9004 31.52 42.2804 31.52 42.5204 31.3C42.7404 31.08 42.7404 30.7 42.5204 30.46L38.5204 26.46C38.1804 25.8 38.2804 24.98 38.8404 24.44C39.1604 24.12 39.6004 23.94 40.0604 23.94C40.5204 23.94 40.9604 24.12 41.2804 24.44L47.0204 30.18C51.5604 34.72 51.5604 42.08 47.0204 46.6Z" fill="url(#paint2_linear_4_194)"/>
<path d="M23.9402 22.88C24.1402 23.14 24.5202 23.16 24.7602 22.96C25.0202 22.76 25.0402 22.38 24.8402 22.14C23.4002 20.38 20.8802 18.94 17.0402 22.06C16.7802 22.26 16.7402 22.64 16.9602 22.88C17.0802 23.02 17.2402 23.1 17.4202 23.1C17.5402 23.1 17.6802 23.06 17.7802 22.96C21.1402 20.26 22.9002 21.62 23.9402 22.88Z" fill="url(#paint3_linear_4_194)"/>
<path d="M27.2806 19.78C27.5206 20 27.8806 19.98 28.1207 19.76C28.3406 19.52 28.3206 19.16 28.1006 18.92C24.0206 15.12 19.4206 15.1 14.3806 18.88C14.1206 19.08 14.0606 19.44 14.2606 19.7C14.3806 19.86 14.5606 19.94 14.7406 19.94C14.8606 19.94 14.9806 19.9 15.1006 19.82C19.6406 16.38 23.6406 16.36 27.2806 19.78Z" fill="url(#paint4_linear_4_194)"/>
<defs>
<linearGradient id="paint0_linear_4_194" x1="11.7369" y1="5.20899" x2="20.8458" y2="5.20899" gradientUnits="userSpaceOnUse">
<stop stop-color="#2570FB"/>
<stop offset="1" stop-color="#8611C1"/>
</linearGradient>
<linearGradient id="paint1_linear_4_194" x1="14.0551" y1="56.2933" x2="18.5282" y2="56.2933" gradientUnits="userSpaceOnUse">
<stop stop-color="#2570FB"/>
<stop offset="1" stop-color="#8611C1"/>
</linearGradient>
<linearGradient id="paint2_linear_4_194" x1="0.405051" y1="30" x2="51.5957" y2="30" gradientUnits="userSpaceOnUse">
<stop stop-color="#2570FB"/>
<stop offset="1" stop-color="#8611C1"/>
</linearGradient>
<linearGradient id="paint3_linear_4_194" x1="16.8263" y1="21.6617" x2="24.9819" y2="21.6617" gradientUnits="userSpaceOnUse">
<stop stop-color="#2570FB"/>
<stop offset="1" stop-color="#8611C1"/>
</linearGradient>
<linearGradient id="paint4_linear_4_194" x1="14.1289" y1="17.989" x2="28.2666" y2="17.989" gradientUnits="userSpaceOnUse">
<stop stop-color="#2570FB"/>
<stop offset="1" stop-color="#8611C1"/>
</linearGradient>
</defs>
</svg>
