<svg width="54" height="60" viewBox="0 0 54 60" fill="none" xmlns="http://www.w3.org/2000/svg">
<path d="M44.7403 43.68L43.7403 43.54L42.5803 43.38L37.5003 42.7L36.3203 42.54L17.1803 39.96C16.8603 39.92 16.5603 40.14 16.5203 40.46C16.4803 40.78 16.7003 41.08 17.0203 41.12L36.3603 43.74L37.5403 43.9L42.5403 44.58L43.7003 44.74L44.6003 44.86C44.6203 44.86 44.6603 44.86 44.6803 44.86C44.9603 44.86 45.2203 44.64 45.2603 44.36C45.3003 44.02 45.0803 43.74 44.7403 43.68Z" fill="url(#paint0_linear_4_150)"/>
<path d="M45.3404 39.3199L43.9604 39.1399L42.8004 38.9799L37.4004 38.2599L36.2204 38.0999L17.7604 35.5999C17.4404 35.5599 17.1404 35.7799 17.1004 36.0999C17.0604 36.4199 17.2804 36.7199 17.6004 36.7599L36.2404 39.2799L37.4204 39.4399L42.7404 40.1599L43.9004 40.3199L45.1804 40.4999C45.2004 40.4999 45.2404 40.4999 45.2604 40.4999C45.5404 40.4999 45.8004 40.2799 45.8404 39.9999C45.8804 39.6599 45.6604 39.3599 45.3404 39.3199Z" fill="url(#paint1_linear_4_150)"/>
<path d="M45.9205 34.96L44.1605 34.72L43.0005 34.56L37.3005 33.78L36.1205 33.62L18.3405 31.22C18.0205 31.18 17.7205 31.4 17.6805 31.72C17.6405 32.04 17.8605 32.34 18.1805 32.38L36.1405 34.8L37.3205 34.96L42.9405 35.72L44.1005 35.88L45.7605 36.1C45.7805 36.1 45.8205 36.1 45.8405 36.1C46.1205 36.1 46.3805 35.88 46.4205 35.6C46.4805 35.3 46.2405 35 45.9205 34.96Z" fill="url(#paint2_linear_4_150)"/>
<path d="M46.5206 30.5999L44.3805 30.3199L43.2206 30.1599L37.2006 29.3399L36.0206 29.1799L18.9205 26.8799C18.6005 26.8399 18.3006 27.0599 18.2606 27.3799C18.2206 27.6999 18.4406 27.9999 18.7606 28.0399L36.0405 30.3799L37.2206 30.5399L43.1606 31.3399L44.3206 31.4999L46.3605 31.7799C46.3806 31.7799 46.4205 31.7799 46.4405 31.7799C46.7205 31.7799 46.9806 31.5599 47.0206 31.2799C47.0606 30.9399 46.8406 30.6399 46.5206 30.5999Z" fill="url(#paint3_linear_4_150)"/>
<path d="M47.1002 26.2399L44.6002 25.8999L43.4402 25.7399L37.1202 24.8799L35.9402 24.7199L19.5202 22.4999C19.2002 22.4599 18.9002 22.6799 18.8602 22.9999C18.8202 23.3199 19.0402 23.6199 19.3602 23.6599L35.9602 25.8999L37.1402 26.0599L43.3802 26.8999L44.5402 27.0599L46.9402 27.3799C46.9602 27.3799 47.0002 27.3799 47.0202 27.3799C47.3002 27.3799 47.5602 27.1599 47.6002 26.8799C47.6602 26.5799 47.4202 26.2799 47.1002 26.2399Z" fill="url(#paint4_linear_4_150)"/>
<path d="M48.9005 3.89996L43.2205 3.13996L42.4405 3.03996L20.2205 0.0399588C19.4605 -0.0600412 18.7005 0.139959 18.0805 0.599959C17.4605 1.05996 17.0805 1.73996 16.9605 2.49996L16.6405 4.93996L11.7405 4.69996C10.1605 4.61996 8.80047 5.85996 8.72047 7.43996L8.60047 9.73996L1.72047 9.87996C0.800474 9.89996 0.0604742 10.68 0.0804742 11.6L1.08047 58.34C1.08047 58.78 1.28047 59.2 1.60047 59.52C1.92047 59.82 2.32047 59.98 2.76047 59.98C2.78047 59.98 2.78047 59.98 2.80047 59.98L36.1405 59.26C36.5805 59.26 37.0005 59.06 37.3205 58.74C37.6405 58.42 37.8005 57.98 37.7805 57.54L37.7405 56.12L40.2005 56.24C40.2405 56.24 40.3005 56.24 40.3405 56.24C41.3805 56.24 42.3205 55.68 42.8205 54.82L44.8405 55.1C44.9805 55.12 45.1005 55.12 45.2405 55.12C45.8605 55.12 46.4805 54.92 46.9805 54.52C47.6005 54.06 47.9805 53.38 48.1005 52.62L53.8205 10.34C54.2605 7.23996 52.0605 4.31996 48.9005 3.89996ZM36.5005 57.96C36.4005 58.06 36.2805 58.12 36.1405 58.12L2.80047 58.82C2.66047 58.82 2.54047 58.78 2.44047 58.68C2.34047 58.58 2.28047 58.46 2.28047 58.32L1.28047 11.58C1.28047 11.3 1.50047 11.06 1.78047 11.06L8.58047 10.92L6.60047 51.74C6.56047 52.52 6.82047 53.24 7.34047 53.82C7.86047 54.4 8.56047 54.72 9.34047 54.76L36.6005 56.08L36.6405 57.58C36.6405 57.72 36.5805 57.86 36.5005 57.96ZM40.3005 55.08L37.7605 54.96L36.5805 54.9L9.40047 53.58C8.94047 53.56 8.52047 53.36 8.22047 53.02C7.92047 52.68 7.76047 52.24 7.78047 51.78L9.76047 10.88L9.82047 9.69996L9.92047 7.47996C9.94047 7.01996 10.1405 6.59996 10.4805 6.29996C10.8205 5.99996 11.2605 5.83996 11.7205 5.85996L16.5205 6.09996L16.0405 9.59996L15.8805 10.78L10.9005 47.62C10.6805 49.2 11.8005 50.66 13.3805 50.86L36.5605 54L37.7405 54.16L41.5005 54.66C41.1805 54.94 40.7605 55.12 40.3005 55.08ZM52.6805 10.22L52.0005 15.32L51.8405 16.54L46.9805 52.48C46.9205 52.94 46.6805 53.34 46.3205 53.62C45.9605 53.9 45.5005 54.02 45.0605 53.96L43.2605 53.72L42.1005 53.56L37.7405 52.96L36.5605 52.8L13.5605 49.7C12.6205 49.58 11.9605 48.7 12.1005 47.78L17.1005 10.74L17.2605 9.55996L17.7205 6.15996L17.8805 4.99996L18.2005 2.65996C18.2605 2.19996 18.5005 1.79996 18.8605 1.51996C19.2205 1.23996 19.6805 1.11996 20.1205 1.17996L42.5005 4.19996L43.7805 4.37996L48.7805 5.05996C51.2605 5.39996 53.0205 7.71996 52.6805 10.22Z" fill="url(#paint5_linear_4_150)"/>
<path d="M47.0601 8.19995L43.8401 7.75995L43.5601 7.71995L42.6601 7.59995L26.3801 5.39995L24.1601 5.09995C23.7201 5.03995 23.3001 5.09995 22.9001 5.23995C22.3201 5.43995 21.8401 5.83995 21.5201 6.33995C21.3201 6.65995 21.1801 7.01995 21.1201 7.41995L20.8401 9.47995V9.49995C20.7801 9.87995 20.8201 10.28 20.9401 10.64C21.0401 10.94 21.1801 11.2399 21.3801 11.4999C21.8201 12.0799 22.4401 12.4399 23.1601 12.5399L35.6801 14.2399L36.8601 14.4L43.9201 15.36L45.0801 15.5199L46.0401 15.6399C46.1601 15.6599 46.2801 15.66 46.4001 15.66C46.7801 15.66 47.1401 15.5799 47.4801 15.4199C47.9601 15.1999 48.3801 14.8399 48.6801 14.4C48.8801 14.0799 49.0201 13.7199 49.0801 13.3199L49.3601 11.2199C49.4601 10.4999 49.2601 9.79995 48.8401 9.21995C48.4201 8.67995 47.7801 8.29995 47.0601 8.19995ZM48.2201 11.08L47.9401 13.1799C47.8801 13.62 47.6401 13.9999 47.2801 14.2399C46.9801 14.4399 46.6001 14.5399 46.2201 14.4999L45.1601 14.36L44.0001 14.2L43.3801 14.1199L36.8201 13.2L35.6001 13.0399L23.3401 11.38C22.9401 11.32 22.5801 11.12 22.3401 10.8C22.3001 10.74 22.2601 10.7 22.2401 10.64C22.0801 10.36 22.0001 10.02 22.0601 9.67995L22.0801 9.45995L22.3401 7.57995C22.4001 7.05995 22.7201 6.63995 23.1601 6.41995C23.4201 6.27995 23.7401 6.21995 24.0601 6.25995L26.3201 6.55995L42.5401 8.75995L43.0201 8.81995L43.7001 8.91995L44.5801 9.03995L46.9201 9.35995C47.3201 9.41995 47.6801 9.61995 47.9201 9.93995C48.1601 10.28 48.2601 10.68 48.2201 11.08Z" fill="url(#paint6_linear_4_150)"/>
<path d="M47.7007 21.88L44.8207 21.5L43.6607 21.34L37.0207 20.44L35.8407 20.28L20.1207 18.16C19.8007 18.12 19.5007 18.34 19.4607 18.66C19.4207 18.98 19.6407 19.28 19.9607 19.32L35.8607 21.46L37.0407 21.62L43.6007 22.5L44.7607 22.66L47.5407 23.04C47.5607 23.04 47.6007 23.04 47.6207 23.04C47.9007 23.04 48.1607 22.82 48.2007 22.54C48.2407 22.22 48.0207 21.92 47.7007 21.88Z" fill="url(#paint7_linear_4_150)"/>
<defs>
<linearGradient id="paint0_linear_4_150" x1="16.4964" y1="42.4046" x2="45.2581" y2="42.4046" gradientUnits="userSpaceOnUse">
<stop stop-color="#2570FB"/>
<stop offset="1" stop-color="#8611C1"/>
</linearGradient>
<linearGradient id="paint1_linear_4_150" x1="17.0859" y1="38.0422" x2="45.8476" y2="38.0422" gradientUnits="userSpaceOnUse">
<stop stop-color="#2570FB"/>
<stop offset="1" stop-color="#8611C1"/>
</linearGradient>
<linearGradient id="paint2_linear_4_150" x1="17.6752" y1="33.6797" x2="46.437" y2="33.6797" gradientUnits="userSpaceOnUse">
<stop stop-color="#2570FB"/>
<stop offset="1" stop-color="#8611C1"/>
</linearGradient>
<linearGradient id="paint3_linear_4_150" x1="18.2647" y1="29.3175" x2="47.0265" y2="29.3175" gradientUnits="userSpaceOnUse">
<stop stop-color="#2570FB"/>
<stop offset="1" stop-color="#8611C1"/>
</linearGradient>
<linearGradient id="paint4_linear_4_150" x1="18.8536" y1="24.9551" x2="47.6153" y2="24.9551" gradientUnits="userSpaceOnUse">
<stop stop-color="#2570FB"/>
<stop offset="1" stop-color="#8611C1"/>
</linearGradient>
<linearGradient id="paint5_linear_4_150" x1="0.104694" y1="29.9998" x2="53.896" y2="29.9998" gradientUnits="userSpaceOnUse">
<stop stop-color="#2570FB"/>
<stop offset="1" stop-color="#8611C1"/>
</linearGradient>
<linearGradient id="paint6_linear_4_150" x1="20.8513" y1="10.3769" x2="49.3986" y2="10.3769" gradientUnits="userSpaceOnUse">
<stop stop-color="#2570FB"/>
<stop offset="1" stop-color="#8611C1"/>
</linearGradient>
<linearGradient id="paint7_linear_4_150" x1="19.4436" y1="20.5928" x2="48.2053" y2="20.5928" gradientUnits="userSpaceOnUse">
<stop stop-color="#2570FB"/>
<stop offset="1" stop-color="#8611C1"/>
</linearGradient>
</defs>
</svg>
