<svg width="60" height="55" viewBox="0 0 60 55" fill="none" xmlns="http://www.w3.org/2000/svg">
<path d="M56.98 0.97998H3.12C1.46 0.97998 0.1 2.33998 0.1 3.99998V38.1C0.04 38.2 0 38.3 0 38.42C0 38.52 0.04 38.62 0.08 38.72V41.54C0.08 43.2 1.44 44.56 3.1 44.56H22.1L21.02 49.68H19.4C18.12 49.68 17.1 50.72 17.1 51.98V52.7C17.1 53.98 18.14 55 19.4 55H40.86C42.14 55 43.16 53.96 43.16 52.7V52C43.16 50.72 42.12 49.7 40.86 49.7H39.18L38.08 44.58H56.98C58.64 44.58 60 43.22 60 41.56V4.01998C60 2.33998 58.64 0.97998 56.98 0.97998ZM3.12 2.15998H56.98C58 2.15998 58.84 2.99998 58.84 4.01998V37.84H1.26V4.01998C1.26 2.99998 2.08 2.15998 3.12 2.15998ZM41.98 52V52.72C41.98 53.34 41.48 53.84 40.86 53.84H19.4C18.78 53.84 18.28 53.34 18.28 52.72V52C18.28 51.38 18.78 50.88 19.4 50.88H38.56C38.6 50.9 38.64 50.9 38.7 50.9C38.74 50.9 38.78 50.9 38.82 50.88C38.82 50.88 38.82 50.88 38.84 50.88H40.86C41.48 50.86 41.98 51.38 41.98 52ZM37.96 49.68H22.24L23.32 44.56H36.86L37.96 49.68ZM56.98 43.38H3.12C2.1 43.38 1.26 42.54 1.26 41.52V39H58.82V41.54C58.82 42.56 58 43.38 56.98 43.38Z" fill="url(#paint0_linear_4_211)"/>
<path d="M5.32023 27.66H26.5602C26.8802 27.66 27.1402 27.4 27.1402 27.08C27.1402 26.76 26.8802 26.5 26.5602 26.5H5.32023C5.00023 26.5 4.74023 26.76 4.74023 27.08C4.74023 27.4 5.00023 27.66 5.32023 27.66Z" fill="url(#paint1_linear_4_211)"/>
<path d="M5.32027 22.92H26.5603C26.8803 22.92 27.1403 22.66 27.1403 22.34C27.1403 22.02 26.8803 21.76 26.5603 21.76H5.32027C5.00027 21.76 4.74027 22.02 4.74027 22.34C4.72027 22.66 5.00027 22.92 5.32027 22.92Z" fill="url(#paint2_linear_4_211)"/>
<path d="M5.32027 18.18H26.5603C26.8803 18.18 27.1403 17.92 27.1403 17.6C27.1403 17.28 26.8803 17.02 26.5603 17.02H5.32027C5.00027 17.02 4.74027 17.28 4.74027 17.6C4.72027 17.92 5.00027 18.18 5.32027 18.18Z" fill="url(#paint3_linear_4_211)"/>
<path d="M5.32023 13.4599H26.5602C26.8802 13.4599 27.1402 13.1999 27.1402 12.8799C27.1402 12.5599 26.8802 12.2999 26.5602 12.2999H5.32023C5.00023 12.2999 4.74023 12.5599 4.74023 12.8799C4.74023 13.1999 5.00023 13.4599 5.32023 13.4599Z" fill="url(#paint4_linear_4_211)"/>
<path d="M5.32023 8.71994H26.5602C26.8802 8.71994 27.1402 8.45994 27.1402 8.13994C27.1402 7.81994 26.8802 7.55994 26.5602 7.55994H5.32023C5.00023 7.55994 4.74023 7.81994 4.74023 8.13994C4.74023 8.45994 5.00023 8.71994 5.32023 8.71994Z" fill="url(#paint5_linear_4_211)"/>
<path d="M31.7001 30.12H36.5201C36.7601 30.12 36.9601 29.98 37.0601 29.78L38.4001 26.82L42.4001 34.38C42.5001 34.58 42.7001 34.7 42.9201 34.7C42.9201 34.7 42.9201 34.7 42.9401 34.7C43.1601 34.7 43.3601 34.56 43.4601 34.36L47.8001 25.08L50.0201 30.12C50.1201 30.34 50.3201 30.48 50.5601 30.48H54.7001C55.0201 30.48 55.2801 30.22 55.2801 29.9C55.2801 29.58 55.0201 29.32 54.7001 29.32H50.9401L48.3401 23.4C48.2401 23.18 48.0401 23.06 47.8001 23.04C47.5601 23.04 47.3601 23.16 47.2601 23.38L42.8601 32.76L38.8601 25.2C38.7601 25 38.5401 24.88 38.3201 24.88C38.1001 24.88 37.9001 25.02 37.8001 25.22L36.1401 28.94H31.7001C31.3801 28.94 31.1201 29.2 31.1201 29.52C31.1201 29.84 31.3801 30.12 31.7001 30.12Z" fill="url(#paint6_linear_4_211)"/>
<path d="M48.9404 21.16H54.0803C54.4003 21.16 54.6603 20.9 54.6603 20.58V7.65996C54.6603 7.33996 54.4003 7.07996 54.0803 7.07996H48.9404C48.6204 7.07996 48.3604 7.33996 48.3604 7.65996V20.56C48.3604 20.9 48.6204 21.16 48.9404 21.16ZM49.5204 8.25996H53.4804V19.98H49.5204V8.25996Z" fill="url(#paint7_linear_4_211)"/>
<path d="M40.8798 21.1599H46.0198C46.3398 21.1599 46.5998 20.8999 46.5998 20.5799V12.6399C46.5998 12.3199 46.3398 12.0599 46.0198 12.0599H40.8798C40.5598 12.0599 40.2998 12.3199 40.2998 12.6399V20.5799C40.2998 20.8999 40.5598 21.1599 40.8798 21.1599ZM41.4798 13.2399H45.4398V19.9999H41.4798V13.2399Z" fill="url(#paint8_linear_4_211)"/>
<path d="M32.3603 21.16H37.5003C37.8203 21.16 38.0803 20.9 38.0803 20.58V10.04C38.0803 9.71996 37.8203 9.45996 37.5003 9.45996H32.3603C32.0403 9.45996 31.7803 9.71996 31.7803 10.04V20.58C31.7803 20.9 32.0403 21.16 32.3603 21.16ZM32.9603 10.62H36.9203V19.98H32.9603V10.62Z" fill="url(#paint9_linear_4_211)"/>
<defs>
<linearGradient id="paint0_linear_4_211" x1="0" y1="28" x2="60" y2="28" gradientUnits="userSpaceOnUse">
<stop stop-color="#2570FB"/>
<stop offset="1" stop-color="#8611C1"/>
</linearGradient>
<linearGradient id="paint1_linear_4_211" x1="4.72937" y1="27.0735" x2="27.1453" y2="27.0735" gradientUnits="userSpaceOnUse">
<stop stop-color="#2570FB"/>
<stop offset="1" stop-color="#8611C1"/>
</linearGradient>
<linearGradient id="paint2_linear_4_211" x1="4.72941" y1="22.3375" x2="27.1453" y2="22.3375" gradientUnits="userSpaceOnUse">
<stop stop-color="#2570FB"/>
<stop offset="1" stop-color="#8611C1"/>
</linearGradient>
<linearGradient id="paint3_linear_4_211" x1="4.72941" y1="17.6015" x2="27.1453" y2="17.6015" gradientUnits="userSpaceOnUse">
<stop stop-color="#2570FB"/>
<stop offset="1" stop-color="#8611C1"/>
</linearGradient>
<linearGradient id="paint4_linear_4_211" x1="4.72937" y1="12.8654" x2="27.1453" y2="12.8654" gradientUnits="userSpaceOnUse">
<stop stop-color="#2570FB"/>
<stop offset="1" stop-color="#8611C1"/>
</linearGradient>
<linearGradient id="paint5_linear_4_211" x1="4.72937" y1="8.12938" x2="27.1453" y2="8.12938" gradientUnits="userSpaceOnUse">
<stop stop-color="#2570FB"/>
<stop offset="1" stop-color="#8611C1"/>
</linearGradient>
<linearGradient id="paint6_linear_4_211" x1="31.1126" y1="28.8712" x2="55.2711" y2="28.8712" gradientUnits="userSpaceOnUse">
<stop stop-color="#2570FB"/>
<stop offset="1" stop-color="#8611C1"/>
</linearGradient>
<linearGradient id="paint7_linear_4_211" x1="48.3528" y1="14.1221" x2="54.6731" y2="14.1221" gradientUnits="userSpaceOnUse">
<stop stop-color="#2570FB"/>
<stop offset="1" stop-color="#8611C1"/>
</linearGradient>
<linearGradient id="paint8_linear_4_211" x1="40.301" y1="16.6084" x2="46.6215" y2="16.6084" gradientUnits="userSpaceOnUse">
<stop stop-color="#2570FB"/>
<stop offset="1" stop-color="#8611C1"/>
</linearGradient>
<linearGradient id="paint9_linear_4_211" x1="31.7767" y1="15.306" x2="38.0969" y2="15.306" gradientUnits="userSpaceOnUse">
<stop stop-color="#2570FB"/>
<stop offset="1" stop-color="#8611C1"/>
</linearGradient>
</defs>
</svg>
