<svg width="18" height="18" viewBox="0 0 18 18" fill="none" xmlns="http://www.w3.org/2000/svg">
<path d="M8.89337 0.0400009C4.00804 0.0400009 0.0400391 4.008 0.0400391 8.89333C0.0400391 10.8347 0.669373 12.6267 1.72537 14.0773L0.626706 17.3627L4.02937 16.2747C5.42671 17.2133 7.09071 17.7467 8.89337 17.7467C13.7787 17.7467 17.7467 13.7787 17.7467 8.89333C17.7467 4.008 13.7787 0.0400009 8.89337 0.0400009ZM14.0454 12.5413C13.832 13.1493 12.9894 13.64 12.3067 13.7893C11.848 13.8853 11.24 13.9707 9.20271 13.128C6.60004 12.0507 4.92537 9.40533 4.79737 9.23467C4.66937 9.064 3.74137 7.83733 3.74137 6.568C3.74137 5.29867 4.38137 4.68 4.64804 4.41333C4.86137 4.2 5.21337 4.09333 5.55471 4.09333C5.66137 4.09333 5.76804 4.104 5.85337 4.104C6.10937 4.11467 6.24804 4.12533 6.41871 4.54133C6.63204 5.05333 7.15471 6.32267 7.21871 6.46133C7.28271 6.58933 7.34671 6.77067 7.26137 6.94133C7.17604 7.12267 7.10137 7.19733 6.97337 7.34667C6.84537 7.496 6.71737 7.61333 6.58937 7.77333C6.47204 7.912 6.33337 8.06133 6.48271 8.328C6.63204 8.584 7.15471 9.42667 7.92271 10.1093C8.91471 10.984 9.71471 11.272 10.0027 11.3893C10.216 11.4747 10.472 11.4533 10.632 11.2933C10.8347 11.08 11.08 10.728 11.3254 10.376C11.5067 10.1307 11.7307 10.0987 11.9654 10.184C12.2 10.2693 13.4694 10.888 13.7254 11.0267C13.9814 11.1547 14.152 11.2187 14.216 11.3253C14.2587 11.4213 14.2587 11.9333 14.0454 12.5413Z" fill="white"/>
</svg>
