<svg width="1366" height="1165" viewBox="0 0 1366 1165" fill="none" xmlns="http://www.w3.org/2000/svg">
<g opacity="0.2">
<path d="M-479.466 167.59C747.044 -427.363 -1312.38 -321.981 -63.1364 327.388" stroke="#0000FF" stroke-width="0.201872" stroke-miterlimit="22.9256"/>
<path d="M-480.043 158.32C730.98 -426.934 -1291.58 -293.245 -49.1874 318.755" stroke="#0200FE" stroke-width="0.201872" stroke-miterlimit="22.9256"/>
<path d="M-480.619 149.049C714.906 -426.502 -1270.78 -264.511 -35.2391 310.12" stroke="#0400FE" stroke-width="0.201872" stroke-miterlimit="22.9256"/>
<path d="M-481.196 139.778C698.833 -426.068 -1249.98 -235.776 -21.292 301.487" stroke="#0600FD" stroke-width="0.201872" stroke-miterlimit="22.9256"/>
<path d="M-481.773 130.509C682.769 -425.638 -1229.18 -207.041 -7.34361 292.855" stroke="#0900FC" stroke-width="0.201872" stroke-miterlimit="22.9256"/>
<path d="M-482.35 121.237C666.695 -425.206 -1208.38 -178.308 6.60558 284.22" stroke="#0B00FB" stroke-width="0.201872" stroke-miterlimit="22.9256"/>
<path d="M-482.927 111.967C650.621 -424.774 -1187.58 -149.572 20.5532 275.586" stroke="#0D00FB" stroke-width="0.201872" stroke-miterlimit="22.9256"/>
<path d="M-483.503 102.696C634.557 -424.344 -1166.79 -120.838 34.5016 266.952" stroke="#0F00FA" stroke-width="0.201872" stroke-miterlimit="22.9256"/>
<path d="M-484.081 93.4259C618.484 -423.911 -1145.98 -92.1027 48.4499 258.318" stroke="#1100F9" stroke-width="0.201872" stroke-miterlimit="22.9256"/>
<path d="M-484.658 84.1556C602.41 -423.478 -1125.19 -63.3688 62.3979 249.685" stroke="#1300F9" stroke-width="0.201872" stroke-miterlimit="22.9256"/>
<path d="M-485.234 74.8847C586.336 -423.045 -1104.39 -34.6344 76.3467 241.051" stroke="#1600F8" stroke-width="0.201872" stroke-miterlimit="22.9256"/>
<path d="M-485.811 65.6143C570.272 -422.616 -1083.59 -5.8985 90.2943 232.417" stroke="#1800F7" stroke-width="0.201872" stroke-miterlimit="22.9256"/>
<path d="M-486.389 56.3439C554.199 -422.183 -1062.79 22.8363 104.243 223.784" stroke="#1A00F6" stroke-width="0.201872" stroke-miterlimit="22.9256"/>
<path d="M-486.965 47.0731C538.125 -421.75 -1041.99 51.5697 118.19 215.15" stroke="#1C00F6" stroke-width="0.201872" stroke-miterlimit="22.9256"/>
<path d="M-487.542 37.8027C522.061 -421.32 -1021.19 80.3056 132.139 206.516" stroke="#1E00F5" stroke-width="0.201872" stroke-miterlimit="22.9256"/>
<path d="M-488.118 28.5308C505.987 -420.888 -1000.39 109.039 146.086 197.882" stroke="#2000F4" stroke-width="0.201872" stroke-miterlimit="22.9256"/>
<path d="M-488.695 19.2614C489.914 -420.455 -979.59 137.775 160.035 189.249" stroke="#2200F4" stroke-width="0.201872" stroke-miterlimit="22.9256"/>
<path d="M-489.272 9.99103C473.839 -420.022 -958.791 166.508 173.983 180.614" stroke="#2500F3" stroke-width="0.201872" stroke-miterlimit="22.9256"/>
<path d="M-489.85 0.71964C457.776 -419.593 -937.992 195.243 187.931 171.98" stroke="#2700F2" stroke-width="0.201872" stroke-miterlimit="22.9256"/>
<path d="M-490.426 -8.55117C441.702 -419.16 -917.193 223.979 201.88 163.348" stroke="#2900F1" stroke-width="0.201872" stroke-miterlimit="22.9256"/>
<path d="M-491.003 -17.8216C425.628 -418.727 -896.394 252.714 215.828 154.714" stroke="#2B00F1" stroke-width="0.201872" stroke-miterlimit="22.9256"/>
<path d="M-491.58 -27.092C409.565 -418.297 -875.594 281.448 229.776 146.081" stroke="#2D00F0" stroke-width="0.201872" stroke-miterlimit="22.9256"/>
<path d="M-492.156 -36.3628C393.491 -417.865 -854.794 310.183 243.725 137.447" stroke="#2F00EF" stroke-width="0.201872" stroke-miterlimit="22.9256"/>
<path d="M-492.734 -45.6328C377.417 -417.432 -833.996 338.918 257.672 128.813" stroke="#3200EE" stroke-width="0.201872" stroke-miterlimit="22.9256"/>
<path d="M-493.311 -54.9036C361.353 -417.003 -813.196 367.652 271.621 120.179" stroke="#3400EE" stroke-width="0.201872" stroke-miterlimit="22.9256"/>
<path d="M-493.888 -64.174C345.279 -416.57 -792.397 396.387 285.569 111.545" stroke="#3600ED" stroke-width="0.201872" stroke-miterlimit="22.9256"/>
<path d="M-494.464 -73.4449C329.205 -416.137 -771.598 425.121 299.517 102.911" stroke="#3800EC" stroke-width="0.201872" stroke-miterlimit="22.9256"/>
<path d="M-495.041 -82.7153C313.131 -415.704 -750.798 453.856 313.465 94.2769" stroke="#3A00EC" stroke-width="0.201872" stroke-miterlimit="22.9256"/>
<path d="M-495.618 -91.9857C297.068 -415.275 -729.999 482.591 327.414 85.6449" stroke="#3C00EB" stroke-width="0.201872" stroke-miterlimit="22.9256"/>
<path d="M-496.194 -101.257C280.994 -414.842 -709.2 511.325 341.362 77.0104" stroke="#3E00EA" stroke-width="0.201872" stroke-miterlimit="22.9256"/>
<path d="M-496.772 -110.526C264.92 -414.409 -688.4 540.06 355.309 68.3764" stroke="#4100E9" stroke-width="0.201872" stroke-miterlimit="22.9256"/>
<path d="M-497.349 -119.797C248.856 -413.979 -667.602 568.795 369.262 59.7411" stroke="#4300E9" stroke-width="0.201872" stroke-miterlimit="22.9256"/>
<path d="M-497.926 -129.069C232.783 -413.547 -646.802 597.53 383.205 51.1104" stroke="#4500E8" stroke-width="0.201872" stroke-miterlimit="22.9256"/>
<path d="M-498.503 -138.339C216.709 -413.114 -626.003 626.263 397.157 42.4731" stroke="#4700E7" stroke-width="0.201872" stroke-miterlimit="22.9256"/>
<path d="M-499.079 -147.61C200.645 -412.685 -605.204 654.995 411.1 33.8425" stroke="#4900E7" stroke-width="0.201872" stroke-miterlimit="22.9256"/>
<path d="M-499.656 -156.88C184.572 -412.252 -584.404 683.732 425.053 25.2071" stroke="#4B00E6" stroke-width="0.201872" stroke-miterlimit="22.9256"/>
<path d="M-500.233 -166.151C168.498 -411.819 -563.604 712.468 438.995 16.5766" stroke="#4E00E5" stroke-width="0.201872" stroke-miterlimit="22.9256"/>
<path d="M-500.81 -175.422C152.424 -411.385 -542.804 741.205 452.948 7.94024" stroke="#5000E4" stroke-width="0.201872" stroke-miterlimit="22.9256"/>
<path d="M-501.387 -184.692C136.36 -410.957 -522.004 769.942 466.9 -0.69508" stroke="#5200E4" stroke-width="0.201872" stroke-miterlimit="22.9256"/>
<path d="M-501.964 -193.962C120.287 -410.523 -501.208 798.668 480.843 -9.32683" stroke="#5400E3" stroke-width="0.201872" stroke-miterlimit="22.9256"/>
<path d="M-502.54 -203.233C104.216 -410.091 -480.408 827.405 494.795 -17.962" stroke="#5600E2" stroke-width="0.201872" stroke-miterlimit="22.9256"/>
<path d="M-503.117 -212.504C88.1446 -409.66 -459.607 856.142 508.738 -26.5927" stroke="#5800E2" stroke-width="0.201872" stroke-miterlimit="22.9256"/>
<path d="M-503.694 -221.774C72.0742 -409.227 -438.808 884.878 522.69 -35.229" stroke="#5B00E1" stroke-width="0.201872" stroke-miterlimit="22.9256"/>
<path d="M-504.271 -231.044C56.0031 -408.796 -418.008 913.615 536.633 -43.8598" stroke="#5D00E0" stroke-width="0.201872" stroke-miterlimit="22.9256"/>
<path d="M-504.848 -240.315C39.9322 -408.364 -397.212 942.342 550.586 -52.496" stroke="#5F00DF" stroke-width="0.201872" stroke-miterlimit="22.9256"/>
<path d="M-505.425 -249.587C23.8617 -407.933 -376.411 971.078 564.528 -61.1278" stroke="#6100DF" stroke-width="0.201872" stroke-miterlimit="22.9256"/>
<path d="M-506.002 -258.856C7.79076 -407.5 -355.611 999.815 578.481 -69.7629" stroke="#6300DE" stroke-width="0.201872" stroke-miterlimit="22.9256"/>
<path d="M-506.579 -268.126C-8.28019 -407.069 -334.811 1028.55 592.433 -78.3983" stroke="#6500DD" stroke-width="0.201872" stroke-miterlimit="22.9256"/>
<path d="M-507.155 -277.398C-24.3507 -406.637 -314.01 1057.29 606.376 -87.0299" stroke="#6700DD" stroke-width="0.201872" stroke-miterlimit="22.9256"/>
<path d="M-507.732 -286.669C-40.4212 -406.205 -293.215 1086.02 620.329 -95.6654" stroke="#6A00DC" stroke-width="0.201872" stroke-miterlimit="22.9256"/>
<path d="M-508.31 -295.938C-56.4936 -405.773 -272.416 1114.75 634.271 -104.297" stroke="#6C00DB" stroke-width="0.201872" stroke-miterlimit="22.9256"/>
<path d="M-508.886 -305.21C-72.5631 -405.342 -251.614 1143.49 648.224 -112.932" stroke="#6E00DA" stroke-width="0.201872" stroke-miterlimit="22.9256"/>
<path d="M-509.463 -314.48C-88.6346 -404.909 -230.814 1172.23 662.167 -121.563" stroke="#7000DA" stroke-width="0.201872" stroke-miterlimit="22.9256"/>
<path d="M-510.04 -323.75C-104.705 -404.478 -210.015 1200.96 676.119 -130.198" stroke="#7200D9" stroke-width="0.201872" stroke-miterlimit="22.9256"/>
<path d="M-510.617 -333.021C-120.777 -404.046 -189.219 1229.69 690.062 -138.83" stroke="#7400D8" stroke-width="0.201872" stroke-miterlimit="22.9256"/>
<path d="M-511.193 -342.291C-136.848 -403.613 -168.419 1258.43 704.014 -147.466" stroke="#7700D7" stroke-width="0.201872" stroke-miterlimit="22.9256"/>
<path d="M-511.77 -351.563C-152.918 -403.182 -147.618 1287.16 717.967 -156.102" stroke="#7900D7" stroke-width="0.201872" stroke-miterlimit="22.9256"/>
<path d="M-512.348 -360.833C-168.988 -402.751 -126.819 1315.9 731.909 -164.733" stroke="#7B00D6" stroke-width="0.201872" stroke-miterlimit="22.9256"/>
<path d="M-512.924 -370.104C-185.059 -402.318 -106.018 1344.64 745.862 -173.368" stroke="#7D00D5" stroke-width="0.201872" stroke-miterlimit="22.9256"/>
<path d="M-513.501 -379.374C-201.13 -401.886 -85.2216 1373.36 759.805 -182" stroke="#7F00D5" stroke-width="0.201872" stroke-miterlimit="22.9256"/>
<path d="M-514.078 -388.644C-217.201 -401.455 -64.4218 1402.1 773.757 -190.635" stroke="#8100D4" stroke-width="0.201872" stroke-miterlimit="22.9256"/>
<path d="M-514.655 -397.915C-233.271 -401.023 -43.6219 1430.84 787.7 -199.266" stroke="#8300D3" stroke-width="0.201872" stroke-miterlimit="22.9256"/>
<path d="M-515.231 -407.186C-249.343 -400.591 -22.8222 1459.57 801.652 -207.903" stroke="#8600D2" stroke-width="0.201872" stroke-miterlimit="22.9256"/>
<path d="M-515.809 -416.456C-265.414 -400.159 -2.02129 1488.31 815.605 -216.539" stroke="#8800D2" stroke-width="0.201872" stroke-miterlimit="22.9256"/>
<path d="M-516.385 -425.727C-281.485 -399.728 18.7747 1517.03 829.547 -225.169" stroke="#8A00D1" stroke-width="0.201872" stroke-miterlimit="22.9256"/>
<path d="M-516.962 -434.997C-297.555 -399.295 39.5746 1545.77 843.5 -233.806" stroke="#8C00D0" stroke-width="0.201872" stroke-miterlimit="22.9256"/>
<path d="M-517.539 -444.269C-313.626 -398.864 60.3748 1574.51 857.443 -242.436" stroke="#8E00D0" stroke-width="0.201872" stroke-miterlimit="22.9256"/>
<path d="M-518.116 -453.54C-329.696 -398.433 81.175 1603.24 871.395 -251.072" stroke="#9000CF" stroke-width="0.201872" stroke-miterlimit="22.9256"/>
<path d="M-518.692 -462.809C-345.768 -398 101.975 1631.98 885.338 -259.702" stroke="#9300CE" stroke-width="0.201872" stroke-miterlimit="22.9256"/>
<path d="M-519.271 -472.08C-361.838 -397.568 122.771 1660.71 899.291 -268.339" stroke="#9500CD" stroke-width="0.201872" stroke-miterlimit="22.9256"/>
<path d="M-519.847 -481.351C-377.909 -397.136 143.571 1689.44 913.234 -276.969" stroke="#9700CD" stroke-width="0.201872" stroke-miterlimit="22.9256"/>
<path d="M-520.424 -490.621C-393.98 -396.704 164.371 1718.18 927.186 -285.606" stroke="#9900CC" stroke-width="0.201872" stroke-miterlimit="22.9256"/>
</g>
<g clip-path="url(#clip0_301_38)">
<g opacity="0.1">
<path d="M745.697 284.709C1716.29 -461.847 -1105.81 -360.089 1802.54 460.545" stroke="#6699FF" stroke-width="0.5" stroke-miterlimit="22.9256"/>
<path d="M745.524 291.284C1703.97 -452.728 -1101.63 -359.83 1794.5 454.595" stroke="#6797FE" stroke-width="0.5" stroke-miterlimit="22.9256"/>
<path d="M745.404 297.969C1691.71 -443.771 -1097.45 -359.572 1786.51 448.754" stroke="#6795FE" stroke-width="0.5" stroke-miterlimit="22.9256"/>
<path d="M745.23 304.545C1679.5 -434.705 -1093.26 -359.313 1778.42 442.967" stroke="#6893FD" stroke-width="0.5" stroke-miterlimit="22.9256"/>
<path d="M745.165 311.067C1667.23 -425.748 -1088.97 -359.107 1770.54 437.073" stroke="#6990FC" stroke-width="0.5" stroke-miterlimit="22.9256"/>
<path d="M744.992 317.643C1655.02 -416.682 -1084.79 -358.849 1762.55 431.232" stroke="#6A8EFB" stroke-width="0.5" stroke-miterlimit="22.9256"/>
<path d="M744.872 324.328C1642.81 -407.616 -1080.6 -358.59 1754.46 425.444" stroke="#6A8CFB" stroke-width="0.5" stroke-miterlimit="22.9256"/>
<path d="M744.698 330.904C1630.55 -398.659 -1076.31 -358.385 1746.41 419.494" stroke="#6B8AFA" stroke-width="0.5" stroke-miterlimit="22.9256"/>
<path d="M744.634 337.426C1618.33 -389.592 -1072.13 -358.126 1738.43 413.653" stroke="#6C88F9" stroke-width="0.5" stroke-miterlimit="22.9256"/>
<path d="M744.46 344.002C1606.01 -380.473 -1067.95 -357.867 1730.44 407.813" stroke="#6C86F9" stroke-width="0.5" stroke-miterlimit="22.9256"/>
<path d="M744.34 350.687C1593.75 -371.516 -1063.76 -357.609 1722.45 401.972" stroke="#6D83F8" stroke-width="0.5" stroke-miterlimit="22.9256"/>
<path d="M744.166 357.262C1581.54 -362.45 -1059.58 -357.35 1714.46 396.131" stroke="#6E81F7" stroke-width="0.5" stroke-miterlimit="22.9256"/>
<path d="M744.102 363.785C1569.27 -353.493 -1055.29 -357.145 1706.42 390.181" stroke="#6F7FF6" stroke-width="0.5" stroke-miterlimit="22.9256"/>
<path d="M743.929 370.36C1557.06 -344.427 -1051.1 -356.886 1698.44 384.34" stroke="#6F7DF6" stroke-width="0.5" stroke-miterlimit="22.9256"/>
<path d="M743.808 377.045C1544.85 -335.361 -1046.92 -356.627 1690.45 378.5" stroke="#707BF5" stroke-width="0.5" stroke-miterlimit="22.9256"/>
<path d="M743.635 383.621C1532.53 -326.241 -1042.74 -356.368 1682.35 372.712" stroke="#7179F4" stroke-width="0.5" stroke-miterlimit="22.9256"/>
<path d="M743.57 390.143C1520.37 -317.337 -1038.45 -356.163 1674.42 366.709" stroke="#7177F4" stroke-width="0.5" stroke-miterlimit="22.9256"/>
<path d="M743.45 396.828C1508.05 -308.218 -1034.26 -355.904 1666.32 360.921" stroke="#7274F3" stroke-width="0.5" stroke-miterlimit="22.9256"/>
<path d="M743.276 403.404C1495.84 -299.152 -1030.08 -355.646 1658.39 355.19" stroke="#7372F2" stroke-width="0.5" stroke-miterlimit="22.9256"/>
<path d="M743.103 409.98C1483.58 -290.195 -1025.9 -355.387 1650.35 349.24" stroke="#7470F1" stroke-width="0.5" stroke-miterlimit="22.9256"/>
<path d="M743.039 416.502C1471.37 -281.129 -1021.6 -355.182 1642.36 343.399" stroke="#746EF1" stroke-width="0.5" stroke-miterlimit="22.9256"/>
<path d="M742.918 423.187C1459.1 -272.172 -1017.42 -354.923 1634.37 337.558" stroke="#756CF0" stroke-width="0.5" stroke-miterlimit="22.9256"/>
<path d="M742.744 429.763C1446.89 -263.106 -1013.24 -354.664 1626.39 331.717" stroke="#766AEF" stroke-width="0.5" stroke-miterlimit="22.9256"/>
<path d="M742.571 436.338C1434.68 -254.039 -1009.06 -354.406 1618.35 325.767" stroke="#7767EE" stroke-width="0.5" stroke-miterlimit="22.9256"/>
<path d="M742.397 442.914C1422.41 -245.083 -1004.87 -354.147 1610.36 319.926" stroke="#7765EE" stroke-width="0.5" stroke-miterlimit="22.9256"/>
<path d="M742.387 449.546C1410.2 -236.016 -1000.58 -353.942 1602.37 314.086" stroke="#7863ED" stroke-width="0.5" stroke-miterlimit="22.9256"/>
<path d="M742.212 456.121C1397.88 -226.897 -996.398 -353.683 1594.38 308.245" stroke="#7961EC" stroke-width="0.5" stroke-miterlimit="22.9256"/>
<path d="M742.039 462.697C1385.62 -217.94 -992.214 -353.424 1586.23 302.348" stroke="#795FEC" stroke-width="0.5" stroke-miterlimit="22.9256"/>
<path d="M741.866 469.273C1373.41 -208.874 -988.031 -353.165 1578.25 296.507" stroke="#7A5DEB" stroke-width="0.5" stroke-miterlimit="22.9256"/>
<path d="M741.855 475.904C1361.19 -199.808 -983.739 -352.96 1570.26 290.666" stroke="#7B5BEA" stroke-width="0.5" stroke-miterlimit="22.9256"/>
<path d="M741.681 482.48C1348.93 -190.851 -979.556 -352.701 1562.27 284.826" stroke="#7C58E9" stroke-width="0.5" stroke-miterlimit="22.9256"/>
<path d="M741.508 489.056C1336.72 -181.784 -975.373 -352.443 1554.28 278.985" stroke="#7C56E9" stroke-width="0.5" stroke-miterlimit="22.9256"/>
<path d="M741.334 495.632C1324.34 -172.774 -971.243 -352.293 1546.24 273.035" stroke="#7D54E8" stroke-width="0.5" stroke-miterlimit="22.9256"/>
<path d="M741.323 502.263C1312.24 -163.761 -966.897 -351.978 1538.31 267.303" stroke="#7E52E7" stroke-width="0.5" stroke-miterlimit="22.9256"/>
<path d="M741.149 508.839C1300.03 -154.695 -962.714 -351.72 1530.27 261.353" stroke="#7E50E7" stroke-width="0.5" stroke-miterlimit="22.9256"/>
<path d="M740.976 515.415C1287.66 -145.685 -958.531 -351.461 1522.28 255.513" stroke="#7F4EE6" stroke-width="0.5" stroke-miterlimit="22.9256"/>
<path d="M740.856 522.099C1275.5 -136.51 -954.348 -351.202 1514.18 249.725" stroke="#804BE5" stroke-width="0.5" stroke-miterlimit="22.9256"/>
<path d="M740.792 528.622C1263.34 -127.606 -950.056 -350.997 1506.31 243.831" stroke="#8149E4" stroke-width="0.5" stroke-miterlimit="22.9256"/>
<path d="M740.618 535.198C1250.97 -118.596 -945.873 -350.738 1498.21 238.043" stroke="#8147E4" stroke-width="0.5" stroke-miterlimit="22.9256"/>
<path d="M740.444 541.773C1238.76 -109.53 -941.743 -350.589 1490.17 232.093" stroke="#8245E3" stroke-width="0.5" stroke-miterlimit="22.9256"/>
<path d="M740.324 548.458C1226.55 -100.463 -937.507 -350.221 1482.18 226.253" stroke="#8343E2" stroke-width="0.5" stroke-miterlimit="22.9256"/>
<path d="M740.26 554.981C1214.28 -91.5065 -933.214 -350.016 1474.3 220.358" stroke="#8341E2" stroke-width="0.5" stroke-miterlimit="22.9256"/>
<path d="M740.085 561.556C1202.07 -82.4403 -929.032 -349.757 1466.21 214.571" stroke="#843EE1" stroke-width="0.5" stroke-miterlimit="22.9256"/>
<path d="M739.912 568.132C1189.7 -73.4301 -924.902 -349.607 1458.16 208.621" stroke="#853CE0" stroke-width="0.5" stroke-miterlimit="22.9256"/>
<path d="M739.792 574.817C1177.54 -64.2546 -920.665 -349.239 1450.23 202.889" stroke="#863ADF" stroke-width="0.5" stroke-miterlimit="22.9256"/>
<path d="M739.728 581.339C1165.38 -55.3509 -916.373 -349.034 1442.19 196.939" stroke="#8638DF" stroke-width="0.5" stroke-miterlimit="22.9256"/>
<path d="M739.554 587.915C1153.01 -46.3407 -912.19 -348.775 1434.2 191.099" stroke="#8736DE" stroke-width="0.5" stroke-miterlimit="22.9256"/>
<path d="M739.38 594.491C1140.8 -37.2745 -908.007 -348.517 1426.22 185.258" stroke="#8834DD" stroke-width="0.5" stroke-miterlimit="22.9256"/>
<path d="M739.261 601.175C1128.59 -28.2084 -903.823 -348.258 1418.12 179.47" stroke="#8832DD" stroke-width="0.5" stroke-miterlimit="22.9256"/>
<path d="M739.086 607.751C1116.27 -19.0889 -899.641 -347.999 1410.13 173.63" stroke="#892FDC" stroke-width="0.5" stroke-miterlimit="22.9256"/>
<path d="M739.023 614.274C1104.11 -10.1853 -895.402 -347.903 1402.2 167.626" stroke="#8A2DDB" stroke-width="0.5" stroke-miterlimit="22.9256"/>
<path d="M738.902 620.959C1091.9 -1.11906 -891.165 -347.535 1394.16 161.948" stroke="#8B2BDA" stroke-width="0.5" stroke-miterlimit="22.9256"/>
<path d="M738.729 627.534C1079.58 8.00037 -886.982 -347.276 1386.12 155.998" stroke="#8B29DA" stroke-width="0.5" stroke-miterlimit="22.9256"/>
<path d="M738.555 634.11C1067.31 16.9572 -882.799 -347.018 1378.13 150.157" stroke="#8C27D9" stroke-width="0.5" stroke-miterlimit="22.9256"/>
<path d="M738.49 640.632C1055.1 26.0235 -878.617 -346.759 1370.14 144.316" stroke="#8D25D8" stroke-width="0.5" stroke-miterlimit="22.9256"/>
<path d="M738.37 647.317C1042.89 35.0897 -874.324 -346.554 1362.15 138.476" stroke="#8E22D7" stroke-width="0.5" stroke-miterlimit="22.9256"/>
<path d="M738.196 653.893C1030.63 44.0465 -870.141 -346.295 1354.11 132.526" stroke="#8E20D7" stroke-width="0.5" stroke-miterlimit="22.9256"/>
<path d="M738.024 660.469C1018.31 53.1659 -865.957 -346.036 1346.02 126.738" stroke="#8F1ED6" stroke-width="0.5" stroke-miterlimit="22.9256"/>
<path d="M737.959 666.991C1006.15 62.0696 -861.719 -345.94 1338.14 120.844" stroke="#901CD5" stroke-width="0.5" stroke-miterlimit="22.9256"/>
<path d="M737.839 673.676C993.94 71.1358 -857.482 -345.572 1330.15 115.003" stroke="#901AD5" stroke-width="0.5" stroke-miterlimit="22.9256"/>
<path d="M737.665 680.252C981.619 80.2552 -853.299 -345.314 1322.05 109.216" stroke="#9118D4" stroke-width="0.5" stroke-miterlimit="22.9256"/>
<path d="M737.492 686.827C969.354 89.2122 -849.17 -345.164 1314.01 103.266" stroke="#9216D3" stroke-width="0.5" stroke-miterlimit="22.9256"/>
<path d="M737.427 693.35C957.142 98.2785 -844.934 -344.796 1306.02 97.4249" stroke="#9313D2" stroke-width="0.5" stroke-miterlimit="22.9256"/>
<path d="M737.307 700.035C944.931 107.345 -840.75 -344.537 1298.04 91.584" stroke="#9311D2" stroke-width="0.5" stroke-miterlimit="22.9256"/>
<path d="M737.134 706.61C932.667 116.301 -836.458 -344.332 1290.05 85.7432" stroke="#940FD1" stroke-width="0.5" stroke-miterlimit="22.9256"/>
<path d="M736.96 713.186C920.455 125.368 -832.328 -344.183 1282.01 79.7932" stroke="#950DD0" stroke-width="0.5" stroke-miterlimit="22.9256"/>
<path d="M736.948 719.818C908.244 134.434 -827.983 -343.868 1274.07 74.0616" stroke="#950BD0" stroke-width="0.5" stroke-miterlimit="22.9256"/>
<path d="M736.775 726.393C895.979 143.391 -823.8 -343.609 1266.03 68.1116" stroke="#9609CF" stroke-width="0.5" stroke-miterlimit="22.9256"/>
<path d="M736.601 732.969C883.658 152.51 -819.617 -343.351 1258.05 62.2708" stroke="#9706CE" stroke-width="0.5" stroke-miterlimit="22.9256"/>
<path d="M736.428 739.545C871.394 161.467 -815.487 -343.201 1249.95 56.4833" stroke="#9804CD" stroke-width="0.5" stroke-miterlimit="22.9256"/>
<path d="M736.417 746.176C859.182 170.533 -811.251 -342.833 1241.96 50.6425" stroke="#9802CD" stroke-width="0.5" stroke-miterlimit="22.9256"/>
<path d="M736.243 752.752C846.971 179.6 -806.958 -342.628 1234.08 44.7485" stroke="#9900CC" stroke-width="0.5" stroke-miterlimit="22.9256"/>
</g>
</g>
<defs>
<clipPath id="clip0_301_38">
<rect width="1215.44" height="1215.44" fill="white" transform="translate(719.812 1013.24) rotate(-116)"/>
</clipPath>
</defs>
</svg>
