<svg width="160" height="35" viewBox="0 0 160 35" fill="none" xmlns="http://www.w3.org/2000/svg">
<g clip-path="url(#clip0_1_9)">
<path fill-rule="evenodd" clip-rule="evenodd" d="M23.1191 0.703209H60.3544V6.19676H23.1191V0.703209ZM23.1191 28.0821H60.3544V33.5757H23.1191V28.0821ZM23.1191 14.3927H60.3544V19.8862H23.1191V14.3927Z" fill="url(#paint0_linear_1_9)"/>
<path d="M74.8903 34.0225C72.9141 34.0225 71.2627 33.6368 69.9367 32.8657C68.6102 32.0947 67.6084 30.9651 66.9315 29.4771C66.2546 27.989 65.8757 26.1627 65.7949 23.9985L70.9518 22.9837C71.0059 24.2555 71.1616 25.3781 71.419 26.3521C71.6759 27.3261 72.0686 28.077 72.5963 28.6042C73.1244 29.1318 73.8211 29.3959 74.6875 29.3959C75.6619 29.3959 76.3522 29.105 76.7584 28.5233C77.164 27.9416 77.3679 27.2044 77.3679 26.3117C77.3679 24.8776 77.0431 23.7007 76.3929 22.7807C75.7433 21.8608 74.8769 20.9412 73.7944 20.0212L69.6526 16.3686C68.4887 15.3678 67.5613 14.2515 66.8716 13.0204C66.1807 11.7894 65.8361 10.2676 65.8361 8.45485C65.8361 5.8575 66.5938 3.85542 68.1098 2.44828C69.6258 1.0415 71.6967 0.338106 74.3225 0.338106C75.8658 0.338106 77.1512 0.574544 78.1802 1.04847C79.2087 1.5217 80.0274 2.17802 80.6369 3.01672C81.2459 3.85542 81.6991 4.8092 81.9972 5.87805C82.2947 6.94657 82.4842 8.07647 82.5655 9.26667L77.4492 10.1598C77.3952 9.13172 77.2801 8.21142 77.1041 7.39992C76.9286 6.58809 76.6166 5.95232 76.1703 5.49239C75.7235 5.03238 75.0674 4.80257 74.2011 4.80257C73.3074 4.80257 72.6236 5.09342 72.15 5.67508C71.6769 6.2568 71.4393 6.98076 71.4393 7.84631C71.4393 8.95561 71.67 9.86857 72.1302 10.5856C72.5904 11.3026 73.2534 12.0398 74.1197 12.7976L78.2203 16.4094C79.5742 17.546 80.7311 18.8784 81.6922 20.4069C82.6533 21.9358 83.1338 23.7819 83.1338 25.9469C83.1338 27.5161 82.7892 28.9094 82.0989 30.1268C81.408 31.3445 80.4475 32.298 79.2157 32.9881C77.9838 33.6779 76.5427 34.0228 74.8908 34.0228L74.8903 34.0225ZM95.6807 34.0225C93.2443 34.0225 91.3494 33.5761 89.9961 32.6833C88.6423 31.7902 87.7085 30.5187 87.1943 28.8682C86.68 27.2177 86.4226 25.2428 86.4226 22.9429V0.703229H92.2698V23.6327C92.2698 24.6608 92.3378 25.6281 92.4732 26.5345C92.6086 27.4409 92.9264 28.1714 93.4273 28.7259C93.9282 29.2807 94.6789 29.5577 95.6807 29.5577C96.7365 29.5577 97.5011 29.2804 97.9747 28.7259C98.4483 28.1711 98.7597 27.4405 98.9085 26.5345C99.0573 25.6281 99.1322 24.6608 99.1322 23.6327V0.703229H104.939V22.9429C104.939 25.2428 104.681 27.2177 104.167 28.8682C103.653 30.5184 102.725 31.7902 101.386 32.6833C100.046 33.5761 98.1444 34.0225 95.6807 34.0225ZM109.649 33.5761V0.703229H115.659V29.4363H123.618V33.5758H109.649V33.5761ZM128.409 33.5761V5.12689H123.171V0.703229H139.576V5.12689H134.419V33.5761H128.409ZM140.51 33.5761L147.128 16.1248L140.713 0.703229H146.317L150.58 10.8897L154.316 0.703229H159.513L153.178 17.2614L160 33.5761H154.397L149.727 22.5373L145.666 33.5761H140.51Z" fill="black"/>
<path d="M0 33.5761V0.703209H7.87765C10.0975 0.703209 11.9719 0.967198 13.5016 1.49448C15.0309 2.02211 16.1949 2.92149 16.9936 4.19367C17.792 5.46515 18.1915 7.19658 18.1915 9.38836C18.1915 10.7139 18.0697 11.9045 17.8258 12.9597C17.5823 14.015 17.1695 14.9147 16.5875 15.6589C16.0055 16.4031 15.1998 16.9778 14.1712 17.3838L18.7599 33.5768H12.7504L8.77092 18.5202H6.00987V33.5768H0V33.5761ZM6.00987 14.7453H7.87765C9.04163 14.7453 9.96872 14.5761 10.6589 14.2379C11.3494 13.8999 11.8435 13.3587 12.1411 12.6149C12.4391 11.8707 12.5877 10.9172 12.5877 9.75347C12.5877 8.10328 12.2832 6.86528 11.6739 6.04019C11.0647 5.2151 9.90767 4.80255 8.20214 4.80255H6.0095V14.7456L6.00987 14.7453Z" fill="black"/>
</g>
<defs>
<linearGradient id="paint0_linear_1_9" x1="36.6365" y1="1.28733" x2="46.8271" y2="32.9948" gradientUnits="userSpaceOnUse">
<stop stop-color="#2570FB"/>
<stop offset="1" stop-color="#8611C1"/>
</linearGradient>
<clipPath id="clip0_1_9">
<rect width="160" height="34.2475" fill="white"/>
</clipPath>
</defs>
</svg>
